<svg width="122" height="123" viewBox="0 0 122 123" fill="none" xmlns="http://www.w3.org/2000/svg">
<path d="M61 11.9375C51.1975 11.9375 41.6151 14.8443 33.4646 20.2903C25.3141 25.7363 18.9615 33.4769 15.2102 42.5333C11.459 51.5896 10.4775 61.555 12.3899 71.1692C14.3022 80.7833 19.0226 89.6145 25.954 96.546C32.8855 103.477 41.7167 108.198 51.3309 110.11C60.945 112.023 70.9104 111.041 79.9668 107.29C89.0231 103.539 96.7637 97.186 102.21 89.0354C107.656 80.8849 110.563 71.3025 110.563 61.5C110.549 48.3595 105.322 35.7611 96.0307 26.4693C86.7389 17.1776 74.1406 11.9514 61 11.9375ZM61 103.438C52.7056 103.438 44.5974 100.978 37.7008 96.3698C30.8042 91.7616 25.429 85.2119 22.2548 77.5488C19.0807 69.8857 18.2502 61.4535 19.8683 53.3184C21.4865 45.1833 25.4807 37.7108 31.3457 31.8457C37.2108 25.9806 44.6833 21.9865 52.8184 20.3683C60.9535 18.7501 69.3857 19.5807 77.0488 22.7548C84.7119 25.929 91.2616 31.3042 95.8698 38.2008C100.478 45.0974 102.938 53.2055 102.938 61.5C102.925 72.6186 98.5025 83.2783 90.6404 91.1404C82.7783 99.0024 72.1187 103.425 61 103.438ZM68.625 84.375C68.625 85.3861 68.2234 86.3559 67.5084 87.0708C66.7934 87.7858 65.8237 88.1875 64.8125 88.1875C62.7902 88.1875 60.8508 87.3842 59.4208 85.9542C57.9909 84.5242 57.1875 82.5848 57.1875 80.5625V61.5C56.1764 61.5 55.2067 61.0983 54.4917 60.3833C53.7767 59.6684 53.375 58.6986 53.375 57.6875C53.375 56.6764 53.7767 55.7066 54.4917 54.9917C55.2067 54.2767 56.1764 53.875 57.1875 53.875C59.2098 53.875 61.1492 54.6783 62.5792 56.1083C64.0092 57.5383 64.8125 59.4777 64.8125 61.5V80.5625C65.8237 80.5625 66.7934 80.9642 67.5084 81.6792C68.2234 82.3941 68.625 83.3639 68.625 84.375ZM53.375 40.5312C53.375 39.4002 53.7104 38.2945 54.3388 37.3541C54.9672 36.4136 55.8603 35.6807 56.9053 35.2478C57.9503 34.815 59.1001 34.7017 60.2094 34.9224C61.3188 35.143 62.3378 35.6877 63.1375 36.4875C63.9373 37.2873 64.482 38.3062 64.7026 39.4156C64.9233 40.5249 64.81 41.6748 64.3772 42.7197C63.9444 43.7647 63.2114 44.6578 62.2709 45.2862C61.3305 45.9146 60.2248 46.25 59.0938 46.25C57.5771 46.25 56.1225 45.6475 55.05 44.575C53.9775 43.5025 53.375 42.048 53.375 40.5312Z" fill="#343330"/>
</svg>
