<svg width="122" height="123" viewBox="0 0 122 123" fill="none" xmlns="http://www.w3.org/2000/svg">
<path d="M61 31C57.2298 31 53.5443 32.118 50.4094 34.2126C47.2746 36.3072 44.8313 39.2844 43.3885 42.7676C41.9457 46.2508 41.5682 50.0836 42.3038 53.7814C43.0393 57.4792 44.8548 60.8758 47.5208 63.5417C50.1867 66.2077 53.5833 68.0232 57.2811 68.7587C60.9789 69.4943 64.8117 69.1168 68.2949 67.674C71.7781 66.2312 74.7553 63.7879 76.8499 60.6531C78.9445 57.5182 80.0625 53.8327 80.0625 50.0625C80.0625 45.0068 78.0541 40.1582 74.4792 36.5833C70.9043 33.0084 66.0557 31 61 31ZM61 61.5C58.7379 61.5 56.5266 60.8292 54.6457 59.5724C52.7648 58.3157 51.2988 56.5294 50.4331 54.4394C49.5674 52.3495 49.3409 50.0498 49.7823 47.8312C50.2236 45.6125 51.3129 43.5745 52.9125 41.975C54.512 40.3754 56.55 39.2861 58.7687 38.8448C60.9873 38.4034 63.287 38.6299 65.3769 39.4956C67.4669 40.3613 69.2532 41.8273 70.5099 43.7082C71.7667 45.5891 72.4375 47.8004 72.4375 50.0625C72.4375 53.0959 71.2325 56.0051 69.0875 58.15C66.9426 60.295 64.0334 61.5 61 61.5ZM61 8.125C49.8814 8.13761 39.2217 12.5601 31.3596 20.4221C23.4976 28.2842 19.0751 38.9439 19.0625 50.0625C19.0625 65.0266 25.9774 80.8866 39.0781 95.9316C44.9647 102.73 51.59 108.852 58.8316 114.184C59.4727 114.633 60.2364 114.874 61.0191 114.874C61.8017 114.874 62.5655 114.633 63.2065 114.184C70.4347 108.85 77.0472 102.728 82.9219 95.9316C96.0035 80.8866 102.938 65.0266 102.938 50.0625C102.925 38.9439 98.5024 28.2842 90.6404 20.4221C82.7783 12.5601 72.1186 8.13761 61 8.125ZM61 106.297C53.1224 100.102 26.6875 77.3457 26.6875 50.0625C26.6875 40.9623 30.3026 32.2347 36.7374 25.7999C43.1722 19.3651 51.8998 15.75 61 15.75C70.1002 15.75 78.8278 19.3651 85.2626 25.7999C91.6974 32.2347 95.3125 40.9623 95.3125 50.0625C95.3125 77.3362 68.8776 100.102 61 106.297Z" fill="#343330"/>
</svg>
