<svg width="122" height="123" viewBox="0 0 122 123" fill="none" xmlns="http://www.w3.org/2000/svg">
<path d="M106.597 32.0246L64.66 9.07813C63.5395 8.45899 62.2802 8.13422 61 8.13422C59.7198 8.13422 58.4605 8.45899 57.34 9.07813L15.4025 32.0341C14.2048 32.6894 13.2051 33.6543 12.5076 34.8279C11.8102 36.0015 11.4406 37.3408 11.4375 38.706V84.2845C11.4406 85.6497 11.8102 86.989 12.5076 88.1626C13.2051 89.3362 14.2048 90.301 15.4025 90.9563L57.34 113.912C58.4605 114.531 59.7198 114.856 61 114.856C62.2802 114.856 63.5395 114.531 64.66 113.912L106.597 90.9563C107.795 90.301 108.795 89.3362 109.492 88.1626C110.19 86.989 110.559 85.6497 110.562 84.2845V38.7108C110.562 37.3431 110.194 36.0008 109.496 34.8245C108.798 33.6481 107.797 32.6811 106.597 32.0246ZM61 15.75L99.287 36.7188L85.0998 44.4867L46.808 23.518L61 15.75ZM61 57.6875L22.713 36.7188L38.8684 27.8738L77.1555 48.8425L61 57.6875ZM19.0625 43.3906L57.1875 64.2545V105.139L19.0625 84.2892V43.3906ZM102.938 84.2702L64.8125 105.139V64.2736L80.0625 55.929V72.9375C80.0625 73.9486 80.4642 74.9184 81.1792 75.6334C81.8941 76.3483 82.8639 76.75 83.875 76.75C84.8861 76.75 85.8559 76.3483 86.5708 75.6334C87.2858 74.9184 87.6875 73.9486 87.6875 72.9375V51.7543L102.938 43.3906V84.2654V84.2702Z" fill="#343330"/>
</svg>
