<svg width="377" height="320" viewBox="0 0 377 320" fill="none" xmlns="http://www.w3.org/2000/svg">
<path fill-rule="evenodd" clip-rule="evenodd" d="M0.633052 319.791L0.626474 319.81L0.612867 319.791H0.633052ZM11.608 287.917L0.633052 319.791H150.016C222.025 319.791 278.79 284.651 298.124 228.501C312.66 186.288 289.889 154.676 245.196 151.358L245.806 149.585C283.332 144.494 320.963 115.323 332.99 80.3931C349.81 31.545 320.647 0.809937 257.289 0.809937H110.467L91.5927 55.6247L163.76 31.4496L240.271 56.6744C270.827 45.94 287.007 45.2727 292.04 52.4417C273.287 54.1386 253.52 60.8309 232.609 73.1287C244.814 71.5526 254.529 69.7498 262.434 68.283C277.575 65.4736 286.074 63.8966 292.702 67.5042C274.672 72.0741 258.22 81.3373 240.958 91.0558C239.711 91.7579 238.46 92.4623 237.203 93.1675L231.201 112.062L212.32 126.839L196.487 154.962L182.335 156.296L175.189 149.642L167.429 155.782L161.963 149.108L157.87 127.029L162.374 89.4686L149.145 127.83L128.963 150.252L118.899 136.258L96.8784 122.263L114.13 140.738L124.577 158.889L156.714 162.302L169.061 182.608L132.129 239.559L107.439 239.407L100.407 246.595L80.3401 246.309L97.3194 226.69L127.568 222.762L132.118 193.972L82.5933 208.786L66.8816 205.164L77.7293 212.371L11.608 287.917Z" fill="#C32727"/>
</svg>
