<svg width="775" height="220" viewBox="0 0 775 220" fill="none" xmlns="http://www.w3.org/2000/svg">
<path fill-rule="evenodd" clip-rule="evenodd" d="M0.757852 158.685L0.754593 158.695L0.747842 158.685H0.757852ZM6.20043 142.879L0.757852 158.685H74.8379C110.548 158.685 138.698 141.259 148.286 113.414C155.494 92.4799 144.202 76.8032 122.039 75.158L122.341 74.2787C140.951 71.7542 159.612 57.2877 165.576 39.9658C173.917 15.7416 159.455 0.499878 128.035 0.499878H55.2254L45.8655 27.683L81.6537 15.6943L119.596 28.2035C134.749 22.8803 142.773 22.5493 145.269 26.1045C135.969 26.946 126.167 30.2648 115.797 36.3634C121.849 35.5817 126.667 34.6877 130.587 33.9604C138.096 32.5671 142.311 31.7851 145.597 33.5741C136.656 35.8404 128.497 40.434 119.937 45.2536C119.318 45.6017 118.698 45.951 118.075 46.3008L115.099 55.6709L105.735 62.9986L97.8832 76.945L90.8655 77.6069L87.3216 74.307L83.4732 77.3516L80.7628 74.0423L78.7328 63.0932L80.9666 44.4665L74.4062 63.4903L64.3975 74.6096L59.4071 67.6695L48.4867 60.7294L57.0419 69.8914L62.2225 78.8928L78.1598 80.5853L84.2826 90.655L65.9678 118.898L53.7238 118.822L50.2364 122.387L40.2852 122.245L48.7054 112.515L63.7061 110.568L65.9621 96.2903L41.4026 103.637L33.611 101.841L38.9905 105.415L6.20043 142.879Z" fill="#C32727"/>
<path d="M181.321 153.768H148.551L199.532 5.70972H263.661C299.691 5.70972 314.129 23.6651 304.059 52.91C297.522 71.896 281.45 88.3102 261.145 94.9761L273.891 153.768H236.781L226.246 99.5902H199.986L181.331 153.768H181.321ZM207.711 77.1247H235.921C252.411 77.1247 265.145 68.199 270.198 53.5246C275.25 38.8501 268.124 29.9244 251.844 29.9244H223.954L207.701 77.1247H207.711Z" fill="#C32727"/>
<path d="M393.796 117.858H338.776L314.471 153.768H280.831L386.182 5.70972H424.702L428.201 153.768H393.371L393.796 117.858ZM353.812 94.6641H394.722L395.521 34.028H394.761L353.802 94.6641H353.812Z" fill="#C32727"/>
<path d="M469.981 153.768L468.332 5.70972H505.012L500.829 121.857H501.589L577.391 5.70972H613.092L509.481 153.768H469.981Z" fill="#C32727"/>
<path d="M747.533 79.7911C731.317 126.887 691.989 156.331 645.649 156.331C599.309 156.331 580.257 126.887 596.473 79.7911C612.69 32.6948 651.944 3.14734 698.394 3.14734C744.844 3.14734 763.786 32.5908 747.533 79.7911ZM629.903 79.7911C619.234 110.776 628.875 130.376 654.595 130.376C680.315 130.376 703.345 110.776 714.013 79.7911C724.682 48.8064 715.113 28.9978 689.503 28.9978C663.893 28.9978 640.608 48.7024 629.903 79.7911Z" fill="#C32727"/>
<path d="M0.295471 187.81L727.296 187.81" stroke="#C32727" stroke-width="5"/>
<path d="M0.295471 216.81L236.295 216.81" stroke="#C32727" stroke-width="5"/>
</svg>
